<svg width="46" height="46" viewBox="0 0 46 46" fill="none" xmlns="http://www.w3.org/2000/svg">
<path d="M22.9111 0.5C25.8563 0.507249 28.7715 1.09631 31.4883 2.2334C34.2049 3.37048 36.67 5.03332 38.7422 7.12598L38.7461 7.12988C40.8387 9.20205 42.5017 11.6672 43.6387 14.3838C44.7757 17.1004 45.3648 20.015 45.3721 22.96C45.3793 25.9049 44.8042 28.8227 43.6807 31.5449C42.557 34.2673 40.9058 36.7407 38.8232 38.8232C36.7407 40.9058 34.2673 42.557 31.5449 43.6807C28.8227 44.8042 25.9049 45.3793 22.96 45.3721C20.015 45.3648 17.1004 44.7757 14.3838 43.6387C11.6672 42.5017 9.20205 40.8387 7.12988 38.7461L7.12598 38.7422C5.03332 36.67 3.37048 34.2049 2.2334 31.4883C1.09631 28.7715 0.507249 25.8563 0.5 22.9111C0.492778 19.9661 1.06773 17.0484 2.19141 14.3262C3.31511 11.6039 4.96538 9.13032 7.04785 7.04785C9.13032 4.96538 11.6039 3.31511 14.3262 2.19141C17.0484 1.06773 19.9661 0.492778 22.9111 0.5ZM13.9727 27.334C13.7704 27.332 13.57 27.376 13.3877 27.4639C13.2031 27.5529 13.0421 27.6843 12.917 27.8467C12.7918 28.0092 12.7059 28.1989 12.667 28.4004C12.6281 28.6017 12.6368 28.8095 12.6924 29.0068L12.6953 29.0156C13.9939 33.3399 18.0873 36.4971 22.9414 36.4971C27.7952 36.4969 31.8888 33.3392 33.1768 29.0137L33.1787 29.0068C33.2343 28.8095 33.2439 28.6017 33.2051 28.4004C33.1663 28.1993 33.0808 28.01 32.9561 27.8477C32.8311 27.6851 32.669 27.554 32.4844 27.4648C32.302 27.3768 32.1019 27.332 31.8994 27.334H13.9727ZM31.4111 17.7627C30.8723 17.5395 30.2791 17.4809 29.707 17.5947C29.1352 17.7085 28.6096 17.9891 28.1973 18.4014C27.7849 18.8138 27.5044 19.3401 27.3906 19.9121C27.2769 20.484 27.3355 21.0765 27.5586 21.6152C27.7818 22.1541 28.1596 22.6144 28.6445 22.9385C29.1294 23.2624 29.6991 23.4355 30.2822 23.4355V23.4346C30.6696 23.4354 31.0531 23.3607 31.4111 23.2129C31.7694 23.065 32.0951 22.8482 32.3691 22.5742C32.6432 22.3002 32.8609 21.9744 33.0088 21.6162C33.1197 21.3474 33.19 21.0638 33.2178 20.7754L33.2314 20.4854C33.2311 19.9027 33.0581 19.3331 32.7344 18.8486C32.4104 18.3638 31.9499 17.9859 31.4111 17.7627ZM15.5898 17.5381C15.2024 17.5372 14.8181 17.6129 14.46 17.7607C14.1017 17.9087 13.776 18.1263 13.502 18.4004C13.228 18.6745 13.0111 19.0002 12.8633 19.3584C12.7524 19.6271 12.6821 19.91 12.6543 20.1982L12.6406 20.4873C12.6407 21.0704 12.8137 21.6402 13.1377 22.125C13.4617 22.6099 13.9221 22.9877 14.4609 23.2109C14.9997 23.4341 15.5922 23.4926 16.1641 23.3789C16.7361 23.2651 17.2624 22.9847 17.6748 22.5723C18.0871 22.1599 18.3676 21.6344 18.4814 21.0625C18.5952 20.4905 18.5367 19.8972 18.3135 19.3584C18.0903 18.8196 17.7124 18.3592 17.2275 18.0352C16.7428 17.7112 16.1729 17.5382 15.5898 17.5381Z" fill="#FFCC00" stroke="black"/>
</svg>
